# xmcd
#
# Track frame offsets:
# 150
# 19113
# 38076
#
# Disc length: 758 seconds
#
#
# Revision: 0
# Processed by: cddbd v1.5.1PL0 Copyright (c) Steve Scherf et al.
# Submitted via: FreeRIP 2.92 
#
DISCID=1902f403
DTITLE=Qlair - ????
DYEAR=1992
DGENRE=JPop
TTITLE0=????
TTITLE1=??????
TTITLE2=???? (????)
EXTD=YEAR: 1992/10/21
EXTT0=
EXTT1=
EXTT2=
PLAYORDER=
